<svg width="40" height="40" viewBox="0 0 40 40" fill="none" xmlns="http://www.w3.org/2000/svg">
<path d="M9.75012 30.25C9.75012 27.4195 12.0447 25.125 14.8751 25.125H20.0001V30.25C20.0001 33.0805 17.7056 35.375 14.8751 35.375C12.0447 35.375 9.75012 33.0805 9.75012 30.25Z" fill="#0ACF83"/>
<path d="M20.0002 19.9995C20.0002 17.1691 22.2948 14.8745 25.1252 14.8745C27.9557 14.8745 30.2502 17.1691 30.2502 19.9995C30.2502 22.83 27.9557 25.1245 25.1252 25.1245C22.2948 25.1245 20.0002 22.8299 20.0002 19.9995Z" fill="#1ABCFE"/>
<path d="M9.75012 20C9.75012 22.8305 12.0447 25.125 14.8751 25.125H20.0001V14.875L14.8751 14.875C12.0447 14.875 9.75012 17.1695 9.75012 20Z" fill="#A259FF"/>
<path d="M20.0002 4.625V14.875H25.1252C27.9557 14.875 30.2502 12.5805 30.2502 9.75C30.2502 6.91954 27.9557 4.625 25.1252 4.625H20.0002Z" fill="#FF7262"/>
<path d="M9.75012 9.74951C9.75012 12.58 12.0447 14.8745 14.8751 14.8745L20.0001 14.8745V4.62451L14.8751 4.62451C12.0447 4.62451 9.75012 6.91905 9.75012 9.74951Z" fill="#F24E1E"/>
</svg>
